# xmcd
#
# Track frame offsets:
#	150
#	18004
#	32343
#	53505
#	77256
#	92028
#	104208
#	125830
#	146994
#	170434
#	191977
#	213663
#	233663
#
# Disc length: 3391 seconds
#
# Revision: 0
# Processed by: cddbd v1.5.1PL2 Copyright (c) Steve Scherf et al.
# Submitted via: dBpowerAMP V4.0
#
DISCID=af0d3d0d
DTITLE=Leo Key - Unlocked
DYEAR=2004
DGENRE=Blues
TTITLE0=Changes We All Go Through
TTITLE1=Doggin This Man
TTITLE2=Movin On
TTITLE3=If I Knew Then
TTITLE4=The Blues Is Back
TTITLE5=Sweet Lil Angel
TTITLE6=Multi-Purpose Man
TTITLE7=Tell Me Why
TTITLE8=Good Luv
TTITLE9=Change Your Ways
TTITLE10=Let Me Down Easy
TTITLE11=The More You Make
TTITLE12=Alabama Blues
EXTD=
EXTT0=
EXTT1=
EXTT2=
EXTT3=
EXTT4=
EXTT5=
EXTT6=
EXTT7=
EXTT8=
EXTT9=
EXTT10=
EXTT11=
EXTT12=
PLAYORDER=
